<?xml version="1.0" standalone="no"?>
<!DOCTYPE svg PUBLIC "-//W3C//DTD SVG 20010904//EN"
 "http://www.w3.org/TR/2001/REC-SVG-20010904/DTD/svg10.dtd">
<svg version="1.0" xmlns="http://www.w3.org/2000/svg"
 width="64.000000pt" height="64.000000pt" viewBox="0 0 64.000000 64.000000"
 preserveAspectRatio="xMidYMid meet">

<g transform="translate(0.000000,64.000000) scale(0.100000,-0.100000)"
fill="#000000" stroke="none">
<path d="M183 591 c-18 -30 -16 -51 12 -96 30 -48 33 -85 7 -85 -27 0 -59 39
-71 87 -7 23 -15 45 -20 48 -15 8 1 -94 24 -160 5 -16 1 -14 -19 8 -26 28 -26
28 -26 5 0 -13 9 -38 20 -55 20 -33 15 -44 -8 -21 -9 9 -12 8 -12 -5 0 -9 34
-50 75 -92 64 -63 75 -71 75 -51 0 12 -9 33 -20 46 -20 24 -29 100 -11 100 14
0 81 -81 81 -97 0 -10 -5 -11 -19 -3 -30 16 -35 12 -17 -14 10 -17 12 -26 4
-28 -8 -3 -7 -10 1 -27 7 -12 11 -37 10 -56 -3 -27 2 -38 24 -55 l27 -21 27
21 c22 17 27 28 24 55 -1 19 3 44 10 56 8 17 9 24 1 27 -8 2 -6 11 4 28 18 26
13 30 -17 14 -14 -8 -19 -7 -19 3 0 16 67 97 81 97 18 0 9 -76 -11 -100 -11
-13 -20 -34 -20 -46 0 -20 11 -12 75 51 41 42 75 83 75 92 0 13 -3 14 -12 5
-23 -23 -28 -12 -8 20 11 18 20 43 20 56 0 23 0 23 -26 -5 -20 -22 -24 -24
-19 -8 23 66 39 168 24 160 -5 -3 -13 -25 -20 -48 -12 -48 -44 -87 -71 -87
-26 0 -23 33 9 90 25 44 26 51 13 77 l-14 28 -5 -32 c-3 -17 -24 -54 -46 -82
-34 -43 -45 -50 -75 -50 -30 0 -41 7 -75 50 -23 29 -42 66 -45 85 -5 33 -6 33
-17 15z"/>
</g>
</svg>
